<svg xmlns="http://www.w3.org/2000/svg" viewBox="0 0 720 320" role="img" aria-label="LLM планирует, через ваш код вызывает инструмент, получает наблюдение и повторяет цикл до финального ответа">
<style>
.svg-label { font-family: "Helvetica", sans-serif; fill: #1a1814; font-size: 15px; font-weight: 600; }
.svg-small { font-family: "Helvetica", sans-serif; fill: #4a463e; font-size: 12px; }
.svg-mono  { font-family: "Menlo", monospace; fill: #7a7468; font-size: 11px; }
.svg-box        { fill: #f3eee2; stroke: #e3ddcc; stroke-width: 1.4; }
.svg-box.surface{ fill: #ffffff; }
.svg-box.accent { fill: #f4ddca; stroke: rgba(184,67,26,.35); }
.svg-box.green  { fill: #d8e7d8; stroke: rgba(45,94,62,.35); }
.svg-box.yellow { fill: #fcf0c0; stroke: rgba(184,136,26,.35); }
.svg-arrow      { stroke: #b8431a; stroke-width: 2.2; fill: none; stroke-linecap: round; stroke-linejoin: round; }
.svg-arrow.green{ stroke: #2d5e3e; }
.svg-arrow.mute { stroke: #7a7468; stroke-width: 1.6; }
.svg-dot        { fill: #b8431a; }
.svg-dot.green  { fill: #2d5e3e; }
.svg-dot.yellow { fill: #b8881a; }
</style>
      <defs>
        <marker id="arrow-accent-3" viewBox="0 0 10 10" refX="8.5" refY="5" markerWidth="7" markerHeight="7" orient="auto-start-reverse">
          <path d="M 0 0 L 10 5 L 0 10 z" fill="#b8431a" />
        </marker>
        <marker id="arrow-green-3" viewBox="0 0 10 10" refX="8.5" refY="5" markerWidth="7" markerHeight="7" orient="auto-start-reverse">
          <path d="M 0 0 L 10 5 L 0 10 z" fill="#2d5e3e" />
        </marker>
      </defs>

      <rect class="svg-box surface" x="34" y="86" width="146" height="80" rx="14" />
      <text class="svg-label" x="107" y="120" text-anchor="middle">запрос</text>
      <text class="svg-small" x="107" y="142" text-anchor="middle">цель задачи</text>

      <path class="svg-arrow" d="M 186 126 H 282" marker-end="url(#arrow-accent-3)" />

      <rect class="svg-box accent" x="288" y="72" width="156" height="108" rx="20" />
      <circle class="svg-dot" cx="340" cy="102" r="5.5" />
      <circle class="svg-dot yellow" cx="366" cy="102" r="5.5" />
      <circle class="svg-dot green" cx="392" cy="102" r="5.5" />
      <text class="svg-label" x="366" y="140" text-anchor="middle">LLM</text>
      <text class="svg-small" x="366" y="164" text-anchor="middle">планирует шаги</text>

      <path class="svg-arrow" d="M 444 104 C 478 70 522 70 556 104" marker-end="url(#arrow-accent-3)" />
      <text class="svg-mono" x="500" y="56" text-anchor="middle">tool_call</text>

      <rect class="svg-box yellow" x="556" y="86" width="140" height="80" rx="14" />
      <text class="svg-label" x="626" y="120" text-anchor="middle">ваш код</text>
      <text class="svg-small" x="626" y="142" text-anchor="middle">исполняет tool</text>

      <path class="svg-arrow green" d="M 556 150 C 522 186 478 186 444 150" marker-end="url(#arrow-green-3)" />
      <text class="svg-mono" x="500" y="214" text-anchor="middle">observation</text>

      <rect x="456" y="111" width="88" height="32" rx="16" fill="#ffffff" stroke="#e3ddcc" stroke-width="1.4" />
      <text class="svg-mono" x="500" y="131" text-anchor="middle" style="fill:#b8431a">loop</text>

      <path class="svg-arrow green" d="M 366 180 V 240" marker-end="url(#arrow-green-3)" />
      <rect class="svg-box green" x="288" y="240" width="156" height="58" rx="14" />
      <text class="svg-label" x="366" y="268" text-anchor="middle">финальный ответ</text>
      <text class="svg-mono" x="366" y="288" text-anchor="middle">tool_calls пуст</text>
    </svg>
